<svg xmlns="http://www.w3.org/2000/svg" xmlns:xlink="http://www.w3.org/1999/xlink" contentStyleType="text/css" height="476px" preserveAspectRatio="none" style="width:478px;height:476px;background:#FFFFFF;" version="1.1" viewBox="0 0 478 476" width="478px" zoomAndPan="magnify"><defs/><g><ellipse cx="90.5" cy="22" fill="#222222" rx="10" ry="10" style="stroke:#222222;stroke-width:1;"/><g id="Activo"><rect fill="#F1F1F1" height="52.7031" rx="12.5" ry="12.5" style="stroke:#181818;stroke-width:0.5;" width="168.7813" x="6" y="108"/><line style="stroke:#181818;stroke-width:0.5;" x1="6" x2="174.7813" y1="135.6094" y2="135.6094"/><text fill="#000000" font-family="sans-serif" font-size="14" lengthAdjust="spacing" textLength="38.124" x="71.3286" y="127.5332">Activo</text><text fill="#000000" font-family="sans-serif" font-size="12" lengthAdjust="spacing" textLength="148.7813" x="11" y="153.0664">equipo en poder del usuario</text></g><g id="Devuelto"><rect fill="#F1F1F1" height="52.7031" rx="12.5" ry="12.5" style="stroke:#181818;stroke-width:0.5;" width="142.0684" x="71.5" y="358"/><line style="stroke:#181818;stroke-width:0.5;" x1="71.5" x2="213.5684" y1="385.6094" y2="385.6094"/><text fill="#000000" font-family="sans-serif" font-size="14" lengthAdjust="spacing" textLength="55.2549" x="114.9067" y="377.5332">Devuelto</text><text fill="#000000" font-family="sans-serif" font-size="12" lengthAdjust="spacing" textLength="122.0684" x="76.5" y="403.0664">hist&#243;rico para auditor&#237;a</text></g><ellipse cx="259.5" cy="459" fill="none" rx="11" ry="11" style="stroke:#222222;stroke-width:1;"/><ellipse cx="259.5" cy="459" fill="#222222" rx="6" ry="6" style="stroke:#222222;stroke-width:1;"/><g id="Vencido"><rect fill="#F1F1F1" height="52.7031" rx="12.5" ry="12.5" style="stroke:#181818;stroke-width:0.5;" width="297.8164" x="157.5" y="233"/><line style="stroke:#181818;stroke-width:0.5;" x1="157.5" x2="455.3164" y1="260.6094" y2="260.6094"/><text fill="#000000" font-family="sans-serif" font-size="14" lengthAdjust="spacing" textLength="50.5928" x="281.1118" y="252.5332">Vencido</text><text fill="#000000" font-family="sans-serif" font-size="12" lengthAdjust="spacing" textLength="277.8164" x="162.5" y="278.0664">alerta para soporte (consulta por fecha_limite &lt; hoy)</text></g><polygon fill="#181818" points="90.5,107.8536,94.5,98.8536,90.5,102.8536,86.5,98.8536,90.5,107.8536" style="stroke:#181818;stroke-width:1;"/><path d="M90.5,36.2027 C90.5,52.9873 90.5,79.1152 90.5,101.8536 " fill="none" style="stroke:#181818;stroke-width:1;"/><text fill="#000000" font-family="sans-serif" font-size="13" lengthAdjust="spacing" textLength="131.5425" x="98.9841" y="69.4951">t&#233;cnico entrega equipo</text><text fill="#000000" font-family="sans-serif" font-size="13" lengthAdjust="spacing" textLength="144.5107" x="92.5" y="85.8467">(fecha l&#237;mite establecida)</text><polygon fill="#181818" points="90.6275,357.9108,85.0029,349.826,86.3512,355.3198,80.8574,356.6681,90.6275,357.9108" style="stroke:#181818;stroke-width:1;"/><path d="M62.9648,161.0835 C34.223,191.0444 -3.9044,242.159 17.5,286 C32.7747,317.286 58.344,338.3506 85.4959,354.8016 " fill="none" style="stroke:#181818;stroke-width:1;"/><text fill="#000000" font-family="sans-serif" font-size="13" lengthAdjust="spacing" textLength="127.188" x="19.5" y="256.9951">registro de devoluci&#243;n</text><text fill="#000000" font-family="sans-serif" font-size="13" lengthAdjust="spacing" textLength="114.1753" x="26.0063" y="273.3467">(se libera el equipo)</text><polygon fill="#181818" points="248.3304,451.9832,242.8372,443.8086,244.0965,449.3235,238.5816,450.5828,248.3304,451.9832" style="stroke:#181818;stroke-width:1;"/><path d="M183.0926,411.0005 C206.1928,425.5122 228.3353,439.4222 243.2498,448.7915 " fill="none" style="stroke:#181818;stroke-width:1;"/><polygon fill="#181818" points="261.5402,232.8979,255.6987,224.9684,257.1953,230.4237,251.74,231.9203,261.5402,232.8979" style="stroke:#181818;stroke-width:1;"/><path d="M135.5178,161.1351 C172.4859,182.1864 219.3739,208.8865 256.3263,229.9289 " fill="none" style="stroke:#181818;stroke-width:1;"/><text fill="#000000" font-family="sans-serif" font-size="13" lengthAdjust="spacing" textLength="114.8926" x="225.5" y="194.4951">fecha l&#237;mite vencida</text><text fill="#000000" font-family="sans-serif" font-size="13" lengthAdjust="spacing" textLength="101.8799" x="232.0063" y="210.8467">(evento temporal)</text><polygon fill="#181818" points="135.4851,357.9806,137.8294,348.4148,134.6004,353.0595,129.9557,349.8304,135.4851,357.9806" style="stroke:#181818;stroke-width:1;"/><path d="M174.9097,286.0194 C160.3246,291.1948 148.8063,297.1811 143.5,304 C131.8017,319.033 131.3633,335.055 134.4234,352.0753 " fill="none" style="stroke:#181818;stroke-width:1;"/><text fill="#000000" font-family="sans-serif" font-size="13" lengthAdjust="spacing" textLength="99.0107" x="168.9673" y="319.4951">devoluci&#243;n tard&#237;a</text><text fill="#000000" font-family="sans-serif" font-size="13" lengthAdjust="spacing" textLength="145.9453" x="145.5" y="335.8467">(notifica al administrador)</text><polygon fill="#181818" points="262.9537,447.9343,269.4256,440.5104,264.4255,443.1558,261.78,438.1556,262.9537,447.9343" style="stroke:#181818;stroke-width:1;"/><path d="M302.6426,286.0449 C300.1208,301.6954 296.5497,322.0933 292.5,340 C283.42,380.1497 271.1635,421.2781 264.7198,442.2001 " fill="none" style="stroke:#181818;stroke-width:1;"/><text fill="#000000" font-family="sans-serif" font-size="13" lengthAdjust="spacing" textLength="128.6353" x="315.1572" y="381.9951">[si nunca se devuelve]</text><text fill="#000000" font-family="sans-serif" font-size="13" lengthAdjust="spacing" textLength="179.9497" x="289.5" y="398.3467">queda registrado como p&#233;rdida</text><!--SRC=[NP5DJW9148NtVOfo9PXm0M9CI72j2SOD45Dq5r2nfsledp4SYOKhZp0Nitf4HNUJcdvVlVVggesuQn0y7gLaI0rb36YkOSwuYwX_7C7zucasVrZ011vZVqeP6wbZEXHknQHN3YtgMqXxTFB6OGTRz8dCycODayaTp6pcJc0AkJ_Pm5Q0GewqmpDY5KPRidjrqRytd9MiEpQUB3iScxEwWkRK5VAvebJEASV1YADEVB7SVmH59GBF6ufAz-S5O_EZh1ZrTKbzfg2RAlIlYswOeo99FrMRgMabeX-RRya_KnT686Dq_NjL1ycyPOk07j0r7AfnRIh-vTIsfh1C3A44VPs6O8hkQBqAXq8ElrEh6Ape5Th-59rwDEQduw_4sZ2quYWgmqD91IEB-KsAdc96g7U399fAyuwiX5Hy7KlywkB5yr35BUpbUD7Y5FRge_-8zPW318lZB54JVm80]--></g></svg>